<svg width="317" height="284" viewBox="0 0 317 284" fill="none" xmlns="http://www.w3.org/2000/svg">
<path d="M312.24 2.95V150.48H164.71V2.95H312.24ZM315.18 0H161.76V153.43H315.19V0H315.18Z" fill="#B22325"/>
<path d="M0 0V153.43H153.43V0H0ZM126 129.31C126 133.28 124.02 135.27 120.05 135.27H95.9C91.93 135.27 89.95 133.28 89.95 129.31V91.77H63.49V129.31C63.49 133.28 61.5 135.27 57.54 135.27H33.39C29.42 135.27 27.44 133.28 27.44 129.31V24.12C27.44 20.15 29.43 18.17 33.39 18.17H57.54C61.51 18.17 63.49 20.16 63.49 24.12V60.01H89.95V24.12C89.95 20.15 91.93 18.17 95.9 18.17H120.05C124.02 18.17 126 20.16 126 24.12V129.31Z" fill="#1E1818"/>
<path d="M275.76 120.51C271.48 125.96 266.11 129.79 259.64 131.98C253.17 134.17 245.82 135.26 237.58 135.26C221.43 135.26 208.33 132.59 198.28 127.24C195.07 125.64 194.06 123.23 195.23 120.02L200.84 105.1C202.34 101.36 204.8 100.23 208.22 101.73C216.03 104.93 223.62 106.54 231 106.54C241.8 106.54 247.2 104.29 247.2 99.81C247.2 97.88 245.97 96.23 243.51 94.83C241.05 93.44 236.93 91.79 231.16 89.86C226.99 88.47 223.51 87.21 220.73 86.09C217.95 84.97 214.85 83.33 211.43 81.19C208.01 79.05 205.28 76.73 203.25 74.21C201.22 71.7 199.51 68.49 198.12 64.58C196.73 60.68 196.03 56.27 196.03 51.35C196.03 29.22 210.63 18.15 239.82 18.15C253.94 18.15 265.49 20.61 274.47 25.53C277.68 27.24 278.69 29.65 277.52 32.75L272.07 46.87C270.68 50.29 268.22 51.41 264.69 50.24C257.96 48 250.9 46.87 243.52 46.87C239.45 46.87 236.35 47.24 234.22 47.99C232.08 48.74 231.01 50.29 231.01 52.64C231.01 54.57 232.21 56.28 234.62 57.77C237.02 59.27 241.11 61.09 246.89 63.22L253.95 65.86C255.23 66.34 257.32 67.2 260.21 68.43C263.1 69.66 265.15 70.7 266.38 71.56C267.61 72.42 269.3 73.59 271.44 75.09C273.58 76.58 275.13 78.08 276.09 79.58C277.05 81.08 278.1 82.84 279.22 84.87C280.34 86.9 281.12 89.17 281.55 91.68C281.98 94.19 282.19 96.95 282.19 99.94C282.18 108.21 280.04 115.05 275.76 120.51Z" fill="#B22325"/>
<path d="M66.16 217.54C64.08 219.06 61.21 219.83 57.53 219.83C53.72 219.83 50.68 219.33 48.4 218.35C47.99 218.16 47.83 217.92 47.92 217.63L48.49 216.11C48.62 215.73 48.85 215.62 49.2 215.78C51.48 216.7 54.23 217.16 57.43 217.16C60.22 217.16 62.4 216.62 63.97 215.54C65.54 214.47 66.33 212.97 66.33 211.07C66.33 210.05 66.14 209.17 65.76 208.41C65.38 207.65 64.76 206.97 63.9 206.39C63.05 205.8 62.27 205.34 61.57 204.98C60.87 204.63 59.87 204.19 58.57 203.65C58.44 203.62 58.35 203.58 58.29 203.55L58.05 203.43C57.96 203.38 57.86 203.35 57.77 203.31C56.47 202.77 55.52 202.37 54.92 202.1C54.32 201.83 53.52 201.4 52.54 200.82C51.56 200.23 50.84 199.65 50.38 199.09C49.92 198.52 49.51 197.78 49.15 196.87C48.78 195.97 48.6 194.95 48.6 193.81C48.6 191.2 49.49 189.18 51.26 187.72C53.04 186.26 55.78 185.53 59.49 185.53C62.66 185.53 65.31 185.99 67.43 186.92C67.81 187.05 67.96 187.27 67.86 187.58L67.29 189.06C67.19 189.44 66.94 189.55 66.53 189.39C64.63 188.63 62.35 188.25 59.68 188.25C54.26 188.25 51.54 190.1 51.54 193.82C51.54 194.35 51.6 194.86 51.73 195.31C51.86 195.77 51.99 196.17 52.13 196.5C52.27 196.83 52.53 197.18 52.91 197.53C53.29 197.88 53.59 198.14 53.82 198.34C54.04 198.53 54.44 198.77 55.01 199.05C55.58 199.33 56 199.54 56.27 199.67C56.54 199.8 57.04 200.01 57.77 200.31C58.5 200.61 58.99 200.83 59.24 200.96C60.22 201.37 60.79 201.61 60.93 201.67C61.07 201.74 61.59 201.96 62.48 202.36C63.37 202.76 63.92 203.03 64.12 203.17C64.33 203.31 64.77 203.6 65.45 204.02C66.13 204.45 66.58 204.8 66.78 205.07C66.99 205.34 67.31 205.72 67.76 206.21C68.2 206.7 68.5 207.18 68.64 207.63C68.78 208.09 68.93 208.63 69.07 209.25C69.21 209.86 69.28 210.51 69.28 211.17C69.28 213.9 68.24 216.02 66.16 217.54Z" fill="#1E1818"/>
<path d="M92.77 215.97C93.12 215.78 93.39 215.89 93.58 216.3L94.05 217.54C94.15 217.82 94.02 218.05 93.67 218.2C91.45 219.38 88.93 219.96 86.11 219.96C82.33 219.96 79.39 218.83 77.29 216.56C75.18 214.3 74.13 211.18 74.13 207.21C74.13 203.15 75.1 200 77.03 197.77C78.97 195.53 81.64 194.41 85.07 194.41C88.4 194.41 90.97 195.47 92.78 197.57C94.59 199.68 95.49 202.46 95.49 205.92V207.87C95.49 208.25 95.28 208.44 94.87 208.44H76.88C77.01 211.23 77.89 213.44 79.52 215.07C81.15 216.71 83.4 217.52 86.25 217.52C88.69 217.54 90.87 217.02 92.77 215.97ZM76.88 206.13H92.77V205.75C92.77 203.06 92.12 200.9 90.82 199.28C89.52 197.66 87.6 196.86 85.06 196.86C79.86 196.85 77.13 199.94 76.88 206.13Z" fill="#1E1818"/>
<path d="M104.12 194.99C104.5 194.99 104.69 195.18 104.69 195.56V200.79C105.2 199.36 106.17 198.02 107.62 196.77C109.06 195.52 110.85 194.89 112.97 194.89C113.29 194.89 113.45 195.03 113.45 195.32V197.36C113.45 197.71 113.28 197.88 112.92 197.88C112.89 197.88 112.78 197.87 112.59 197.83C112.4 197.8 112.21 197.78 112.02 197.78C110.05 197.78 108.34 198.72 106.88 200.61C105.42 202.49 104.69 204.62 104.69 206.96V218.8C104.69 219.18 104.5 219.37 104.12 219.37H102.51C102.1 219.37 101.89 219.18 101.89 218.8V195.59C101.89 195.18 102.1 194.97 102.51 194.97H104.12V194.99Z" fill="#1E1818"/>
<path d="M125.62 219.4C125.3 219.4 125.07 219.23 124.91 218.88L116.44 195.67C116.28 195.22 116.42 195 116.87 195H118.63C118.95 195 119.15 195.19 119.25 195.57L123.96 208.46L126.58 216.36H126.68L129.3 208.46L134.01 195.57C134.1 195.19 134.31 195 134.63 195H136.44C136.88 195 137.03 195.22 136.87 195.67L128.35 218.88C128.19 219.23 127.95 219.4 127.64 219.4H125.62Z" fill="#1E1818"/>
<path d="M145.01 190.95C145.01 191.33 144.82 191.52 144.44 191.52H142.78C142.43 191.52 142.26 191.33 142.26 190.95V187C142.26 186.62 142.43 186.43 142.78 186.43H144.44C144.82 186.43 145.01 186.62 145.01 187V190.95ZM145.01 218.82C145.01 219.2 144.82 219.39 144.44 219.39H142.78C142.43 219.39 142.26 219.2 142.26 218.82V195.61C142.26 195.2 142.43 194.99 142.78 194.99H144.44C144.82 194.99 145.01 195.2 145.01 195.61V218.82Z" fill="#1E1818"/>
<path d="M154.62 197.75C156.65 195.53 159.41 194.42 162.9 194.42C165.63 194.42 167.84 194.91 169.56 195.9C169.94 196.12 170.07 196.36 169.94 196.61L169.37 197.95C169.24 198.33 168.97 198.42 168.56 198.23C167.01 197.4 165.22 196.99 163.18 196.99C160.39 196.99 158.24 197.84 156.71 199.56C155.19 201.27 154.43 203.79 154.43 207.12C154.43 210.45 155.19 212.99 156.71 214.73C158.23 216.48 160.34 217.34 163.04 217.34C165.29 217.34 167.24 216.87 168.89 215.92C169.24 215.76 169.48 215.86 169.6 216.21L170.17 217.59C170.26 217.84 170.12 218.06 169.74 218.26C167.93 219.34 165.72 219.88 163.08 219.88H162.7C164.35 220.8 165.17 221.95 165.17 223.35C165.17 225.38 163.71 226.4 160.8 226.4C159.97 226.4 159.45 226.35 159.23 226.26C158.97 226.17 158.85 226.01 158.85 225.79V224.89C158.85 224.67 158.99 224.56 159.28 224.56H160.52C162.23 224.56 163.09 224.05 163.09 223.03C163.09 221.7 162.06 220.54 160 219.56C157.37 218.96 155.31 217.58 153.81 215.45C152.32 213.31 151.58 210.54 151.58 207.15C151.57 203.1 152.59 199.97 154.62 197.75Z" fill="#1E1818"/>
<path d="M177.13 216.54C175.14 214.32 174.15 211.2 174.15 207.17C174.15 203.11 175.14 199.97 177.13 197.75C179.11 195.53 181.88 194.42 185.43 194.42C188.99 194.42 191.76 195.53 193.76 197.75C195.76 199.97 196.76 203.11 196.76 207.17C196.76 211.2 195.76 214.32 193.76 216.54C191.76 218.76 188.99 219.87 185.43 219.87C181.88 219.87 179.11 218.76 177.13 216.54ZM191.71 214.81C193.17 213.08 193.9 210.54 193.9 207.18C193.9 203.82 193.17 201.27 191.71 199.52C190.25 197.77 188.16 196.9 185.43 196.9C182.7 196.9 180.62 197.77 179.18 199.52C177.74 201.26 177.02 203.82 177.02 207.18C177.02 210.54 177.74 213.09 179.18 214.81C180.62 216.54 182.71 217.4 185.43 217.4C188.16 217.4 190.25 216.54 191.71 214.81Z" fill="#1E1818"/>
<path d="M209.63 219.87C206.58 219.87 203.97 219.41 201.78 218.49C201.43 218.33 201.29 218.14 201.35 217.92L201.83 216.54C201.96 216.16 202.18 216.05 202.49 216.21C204.55 217.03 206.87 217.45 209.44 217.45C211.63 217.45 213.25 217.12 214.29 216.45C215.33 215.78 215.86 214.72 215.86 213.26C215.86 212.53 215.71 211.9 215.43 211.36C215.14 210.82 214.63 210.33 213.88 209.88C213.14 209.44 212.47 209.1 211.89 208.86C211.3 208.62 210.37 208.27 209.11 207.79C208.95 207.73 208.58 207.59 207.99 207.39C207.4 207.18 207.01 207.04 206.82 206.96C206.63 206.88 206.29 206.74 205.8 206.53C205.31 206.32 204.97 206.16 204.78 206.03L203.92 205.46C203.54 205.21 203.27 204.98 203.11 204.77C202.95 204.56 202.75 204.3 202.49 203.99C202.24 203.68 202.06 203.36 201.94 203.04C201.83 202.72 201.74 202.35 201.66 201.92C201.58 201.49 201.54 201.04 201.54 200.57C201.54 196.48 204.28 194.43 209.77 194.43C212.66 194.43 215.1 194.89 217.1 195.81C217.41 195.97 217.53 196.18 217.43 196.44L217 197.7C216.9 198.02 216.68 198.13 216.33 198.03C214.36 197.24 212.27 196.84 210.05 196.84C208.02 196.84 206.54 197.13 205.62 197.72C204.7 198.3 204.24 199.25 204.24 200.55C204.24 201.12 204.36 201.64 204.6 202.12C204.84 202.6 205.09 202.97 205.36 203.26C205.63 203.54 206.11 203.86 206.81 204.21C207.51 204.56 208.07 204.82 208.5 204.97C208.93 205.13 209.67 205.39 210.71 205.73C211.95 206.18 212.96 206.59 213.75 206.97C214.54 207.35 215.35 207.84 216.18 208.42C217 209.01 217.61 209.69 218.01 210.49C218.41 211.28 218.61 212.2 218.61 213.25C218.62 217.67 215.62 219.87 209.63 219.87Z" fill="#1E1818"/>
<path d="M264.03 214.17L268.36 218.78C268.45 218.94 268.47 219.08 268.41 219.21C268.35 219.34 268.24 219.4 268.08 219.4H266.03C265.65 219.4 265.19 219.13 264.66 218.59L262.37 216.07C259.93 218.54 256.22 219.78 251.24 219.78C247.12 219.78 243.82 218.86 241.34 217.02C238.87 215.18 237.63 212.69 237.63 209.55C237.63 206.95 238.45 204.74 240.08 202.91C241.72 201.09 243.96 199.87 246.81 199.27L245.72 198.08C244.64 196.91 243.87 195.87 243.39 194.96C242.91 194.06 242.67 193.02 242.67 191.84C242.67 187.62 245.51 185.51 251.19 185.51C253.6 185.51 255.64 185.89 257.33 186.65C257.8 186.84 257.96 187.08 257.8 187.37L257.28 188.56C257.09 188.94 256.79 189.04 256.38 188.85C254.96 188.25 253.27 187.95 251.33 187.95C247.31 187.95 245.29 189.25 245.29 191.85C245.29 192.55 245.45 193.23 245.79 193.9C246.12 194.57 246.44 195.08 246.74 195.45C247.04 195.82 247.6 196.44 248.43 197.33L262.22 212.22C263.14 210.86 263.6 209.08 263.6 206.89C263.6 206.42 263.52 205.85 263.36 205.2C263.2 204.55 263.12 204.18 263.12 204.09C263.09 203.68 263.26 203.47 263.64 203.47H265.07C265.39 203.47 265.61 203.64 265.74 203.99C265.99 204.91 266.12 205.91 266.12 206.99C266.13 209.84 265.42 212.23 264.03 214.17ZM260.6 214.21L248.57 201.22C245.94 201.7 243.95 202.66 242.62 204.1C241.29 205.55 240.62 207.34 240.62 209.5C240.62 211.72 241.61 213.56 243.57 215.02C245.53 216.48 248.11 217.21 251.27 217.21C255.59 217.21 258.7 216.21 260.6 214.21Z" fill="#1E1818"/>
<path d="M10.7 243.11C15.33 243.11 18.72 243.96 20.88 245.65C23.04 247.35 24.12 250.02 24.12 253.66C24.12 259.85 20.71 263.25 13.89 263.89L24.07 275.64C24.23 275.8 24.28 275.97 24.22 276.16C24.16 276.35 24 276.45 23.74 276.45H21.69C21.34 276.45 21.04 276.29 20.79 275.97L10.61 264.17H3.9V275.83C3.9 276.24 3.7 276.45 3.28 276.45H1.57C1.16 276.45 0.949997 276.24 0.949997 275.83V243.68C0.949997 243.3 1.15 243.11 1.57 243.11H10.7ZM10.56 261.47C14.37 261.47 17.07 260.86 18.67 259.63C20.27 258.41 21.07 256.42 21.07 253.66C21.07 250.87 20.26 248.87 18.64 247.64C17.02 246.42 14.36 245.81 10.65 245.81H3.9V261.46H10.56V261.47Z" fill="#1E1818"/>
<path d="M47.5 273.03C47.85 272.84 48.12 272.95 48.31 273.36L48.79 274.6C48.88 274.89 48.76 275.11 48.41 275.27C46.19 276.44 43.67 277.03 40.85 277.03C37.08 277.03 34.13 275.9 32.03 273.63C29.92 271.36 28.87 268.24 28.87 264.28C28.87 260.22 29.84 257.07 31.77 254.83C33.71 252.6 36.39 251.48 39.81 251.48C43.14 251.48 45.71 252.53 47.52 254.64C49.33 256.75 50.23 259.53 50.23 262.99V264.94C50.23 265.32 50.02 265.51 49.61 265.51H31.62C31.75 268.31 32.63 270.51 34.26 272.15C35.89 273.78 38.14 274.6 40.99 274.6C43.43 274.6 45.6 274.08 47.5 273.03ZM31.62 263.18H47.5V262.8C47.5 260.1 46.85 257.95 45.55 256.33C44.25 254.71 42.33 253.91 39.79 253.91C34.6 253.91 31.87 257 31.62 263.18Z" fill="#1E1818"/>
<path d="M76.18 273.03C76.18 276.01 75.25 278.3 73.4 279.88C71.54 281.46 68.98 282.26 65.72 282.26C62.45 282.26 59.74 281.75 57.58 280.74C57.29 280.55 57.18 280.36 57.25 280.17L57.77 278.79C57.86 278.41 58.09 278.28 58.44 278.41C60.6 279.33 63.01 279.79 65.67 279.79C68.11 279.79 70.02 279.2 71.38 278.03C72.74 276.86 73.43 275.13 73.43 272.85V269.48C72.79 271.03 71.74 272.24 70.26 273.12C68.79 273.99 67.08 274.43 65.15 274.43C62.07 274.43 59.62 273.46 57.8 271.53C55.98 269.6 55.06 266.76 55.06 263.02C55.06 259.28 55.95 256.42 57.75 254.45C59.54 252.49 61.98 251.5 65.05 251.5C66.95 251.5 68.67 251.93 70.21 252.78C71.75 253.64 72.82 254.79 73.42 256.26V252.64C73.42 252.26 73.63 252.07 74.04 252.07H75.61C75.99 252.07 76.18 252.28 76.18 252.69V273.03ZM71.35 256.12C69.97 254.65 68.04 253.91 65.57 253.91C60.43 253.91 57.86 256.94 57.86 263C57.86 269.02 60.43 272.03 65.57 272.03C68.01 272.03 69.93 271.22 71.33 269.58C72.73 267.95 73.43 265.64 73.43 262.66C73.42 259.77 72.72 257.59 71.35 256.12Z" fill="#1E1818"/>
<path d="M83.68 252.67C83.68 252.26 83.87 252.05 84.25 252.05H85.87C86.25 252.05 86.44 252.26 86.44 252.67V267.66C86.44 272.13 88.58 274.37 92.86 274.37C95.17 274.37 97.07 273.69 98.54 272.32C100.01 270.95 100.75 269.16 100.75 266.94V252.67C100.75 252.26 100.94 252.05 101.32 252.05H102.98C103.33 252.05 103.5 252.26 103.5 252.67V275.89C103.5 276.27 103.33 276.46 102.98 276.46H101.32C100.94 276.46 100.75 276.27 100.75 275.89V272.13C100.18 273.43 99.21 274.56 97.85 275.5C96.49 276.46 94.63 276.93 92.29 276.93C89.4 276.93 87.25 276.15 85.82 274.6C84.39 273.04 83.68 270.87 83.68 268.08V252.67Z" fill="#1E1818"/>
<path d="M114.25 275.88C114.25 276.26 114.06 276.45 113.68 276.45H112.02C111.67 276.45 111.49 276.26 111.49 275.88V243.62C111.49 243.27 111.66 243.1 112.02 243.1H113.68C114.06 243.1 114.25 243.27 114.25 243.62V275.88Z" fill="#1E1818"/>
<path d="M140.5 275.88C140.5 276.26 140.31 276.45 139.93 276.45H138.41C138.06 276.45 137.89 276.26 137.89 275.88V271.93C136.27 275.23 133.13 276.88 128.47 276.88C125.87 276.88 123.86 276.26 122.43 275.02C121 273.78 120.29 272.12 120.29 270.03C120.29 268.92 120.48 267.94 120.86 267.11C121.24 266.27 121.83 265.56 122.62 265C123.41 264.42 124.28 263.96 125.21 263.59C126.14 263.23 127.33 262.93 128.78 262.71C130.22 262.49 131.62 262.33 132.96 262.23C134.31 262.13 135.92 262.07 137.79 262.03V260.18C137.79 258.02 137.28 256.45 136.25 255.47C135.22 254.49 133.5 253.99 131.09 253.99C128.46 253.99 125.86 254.53 123.29 255.61C122.91 255.77 122.67 255.66 122.58 255.28L122.15 253.9C122.06 253.61 122.17 253.39 122.48 253.23C125.17 252.05 128.11 251.47 131.28 251.47C134.51 251.47 136.86 252.19 138.32 253.61C139.78 255.03 140.51 257.19 140.51 260.08V275.88H140.5ZM137.79 264.28C136.08 264.34 134.75 264.4 133.79 264.45C132.84 264.5 131.7 264.59 130.37 264.73C129.04 264.87 128.01 265.07 127.28 265.33C126.55 265.58 125.81 265.91 125.07 266.3C124.33 266.7 123.79 267.2 123.48 267.8C123.17 268.4 123.01 269.12 123.01 269.94C123.01 271.3 123.51 272.41 124.51 273.27C125.51 274.13 126.97 274.56 128.91 274.56C131.73 274.56 133.92 273.84 135.47 272.41C137.02 270.99 137.8 269.2 137.8 267.03V264.28H137.79Z" fill="#1E1818"/>
<path d="M150.29 252.05C150.67 252.05 150.86 252.24 150.86 252.62V257.85C151.37 256.43 152.34 255.08 153.79 253.83C155.23 252.58 157.02 251.95 159.14 251.95C159.46 251.95 159.61 252.09 159.61 252.38V254.42C159.61 254.77 159.44 254.95 159.09 254.95C159.06 254.95 158.95 254.93 158.76 254.9C158.57 254.87 158.38 254.85 158.19 254.85C156.22 254.85 154.51 255.8 153.05 257.68C151.59 259.57 150.86 261.68 150.86 264.03V275.88C150.86 276.26 150.67 276.45 150.29 276.45H148.67C148.26 276.45 148.05 276.26 148.05 275.88V252.66C148.05 252.25 148.26 252.04 148.67 252.04H150.29V252.05Z" fill="#1E1818"/>
<path d="M167.98 248.01C167.98 248.39 167.79 248.58 167.41 248.58H165.75C165.4 248.58 165.23 248.39 165.23 248.01V244.06C165.23 243.68 165.4 243.49 165.75 243.49H167.41C167.79 243.49 167.98 243.68 167.98 244.06V248.01ZM167.98 275.88C167.98 276.26 167.79 276.45 167.41 276.45H165.75C165.4 276.45 165.23 276.26 165.23 275.88V252.66C165.23 252.25 165.4 252.04 165.75 252.04H167.41C167.79 252.04 167.98 252.25 167.98 252.66V275.88Z" fill="#1E1818"/>
<path d="M192.23 253.76C192.23 254.04 192.15 254.31 191.99 254.57L178 273.93H191.61C192.02 273.93 192.22 274.11 192.22 274.46V275.89C192.22 276.27 192.01 276.46 191.61 276.46H175C174.62 276.46 174.43 276.27 174.43 275.89V274.75C174.43 274.5 174.51 274.24 174.67 273.99L188.7 254.63H175.3C174.92 254.63 174.73 254.44 174.73 254.06V252.68C174.73 252.27 174.92 252.06 175.3 252.06H191.67C192.05 252.06 192.24 252.27 192.24 252.68V253.76H192.23Z" fill="#1E1818"/>
<path d="M216.43 275.88C216.43 276.26 216.24 276.45 215.86 276.45H214.34C213.99 276.45 213.81 276.26 213.81 275.88V271.93C212.19 275.23 209.05 276.88 204.39 276.88C201.79 276.88 199.78 276.26 198.35 275.02C196.92 273.78 196.21 272.12 196.21 270.03C196.21 268.92 196.4 267.94 196.78 267.11C197.16 266.27 197.75 265.56 198.54 265C199.34 264.42 200.2 263.96 201.14 263.59C202.07 263.23 203.26 262.93 204.71 262.71C206.15 262.49 207.55 262.33 208.89 262.23C210.24 262.13 211.85 262.07 213.72 262.03V260.18C213.72 258.02 213.21 256.45 212.17 255.47C211.14 254.49 209.42 253.99 207.01 253.99C204.38 253.99 201.78 254.53 199.2 255.61C198.82 255.77 198.59 255.66 198.49 255.28L198.06 253.9C197.97 253.61 198.07 253.39 198.39 253.23C201.09 252.05 204.02 251.47 207.19 251.47C210.42 251.47 212.77 252.19 214.23 253.61C215.69 255.03 216.42 257.19 216.42 260.08V275.88H216.43ZM213.72 264.28C212.01 264.34 210.68 264.4 209.72 264.45C208.77 264.5 207.63 264.59 206.3 264.73C204.96 264.87 203.93 265.07 203.21 265.33C202.48 265.58 201.74 265.91 200.99 266.3C200.24 266.7 199.72 267.2 199.4 267.8C199.08 268.4 198.92 269.12 198.92 269.94C198.92 271.3 199.42 272.41 200.42 273.27C201.42 274.13 202.89 274.56 204.82 274.56C207.64 274.56 209.83 273.84 211.38 272.41C212.93 270.99 213.71 269.2 213.71 267.03V264.28H213.72Z" fill="#1E1818"/>
<path d="M225.7 254.81C227.73 252.59 230.49 251.48 233.98 251.48C236.71 251.48 238.92 251.97 240.64 252.96C241.02 253.18 241.15 253.42 241.02 253.67L240.45 255C240.32 255.38 240.05 255.48 239.64 255.29C238.09 254.47 236.29 254.05 234.26 254.05C231.47 254.05 229.31 254.91 227.79 256.62C226.27 258.33 225.51 260.85 225.51 264.18C225.51 267.51 226.27 270.05 227.79 271.79C229.31 273.53 231.42 274.4 234.12 274.4C236.37 274.4 238.32 273.92 239.97 272.97C240.32 272.81 240.56 272.91 240.69 273.26L241.26 274.64C241.36 274.89 241.21 275.12 240.83 275.31C239.02 276.39 236.8 276.93 234.17 276.93H233.79C235.44 277.85 236.26 279.01 236.26 280.41C236.26 282.44 234.8 283.45 231.88 283.45C231.06 283.45 230.53 283.4 230.31 283.31C230.06 283.21 229.93 283.05 229.93 282.83V281.93C229.93 281.71 230.07 281.6 230.36 281.6H231.6C233.32 281.6 234.17 281.09 234.17 280.08C234.17 278.75 233.14 277.59 231.08 276.61C228.45 276.01 226.39 274.64 224.9 272.5C223.41 270.36 222.67 267.59 222.67 264.2C222.66 260.15 223.67 257.03 225.7 254.81Z" fill="#1E1818"/>
<path d="M248.21 273.6C246.23 271.38 245.24 268.26 245.24 264.23C245.24 260.17 246.23 257.03 248.21 254.81C250.19 252.59 252.96 251.48 256.51 251.48C260.06 251.48 262.84 252.59 264.84 254.81C266.84 257.03 267.83 260.17 267.83 264.23C267.83 268.26 266.84 271.38 264.84 273.6C262.84 275.82 260.07 276.93 256.51 276.93C252.96 276.93 250.19 275.82 248.21 273.6ZM262.79 271.86C264.25 270.14 264.98 267.59 264.98 264.23C264.98 260.87 264.25 258.32 262.79 256.57C261.33 254.83 259.24 253.95 256.51 253.95C253.78 253.95 251.7 254.82 250.25 256.57C248.81 258.32 248.09 260.87 248.09 264.23C248.09 267.59 248.81 270.14 250.25 271.86C251.69 273.59 253.78 274.46 256.51 274.46C259.24 274.46 261.33 273.59 262.79 271.86ZM262.57 247.79C262.08 248.34 261.36 248.62 260.41 248.62C259.3 248.62 258.05 248.32 256.65 247.72L255.6 247.29C254.49 246.85 253.65 246.62 253.08 246.62C252.41 246.62 252.02 246.89 251.89 247.43L251.75 248C251.66 248.35 251.42 248.52 251.04 248.52H250.23C249.88 248.52 249.71 248.28 249.71 247.81C249.71 246.89 249.95 246.15 250.45 245.6C250.94 245.05 251.66 244.77 252.61 244.77C253.5 244.77 254.75 245.09 256.36 245.72L257.5 246.15C258.68 246.63 259.51 246.87 260.02 246.87C260.69 246.87 261.08 246.54 261.21 245.87L261.3 245.39C261.33 245.04 261.55 244.87 261.97 244.87H262.82C263.14 244.87 263.3 245.1 263.3 245.58C263.31 246.5 263.07 247.24 262.57 247.79Z" fill="#1E1818"/>
<path d="M291.6 273.03C291.95 272.84 292.22 272.95 292.41 273.36L292.88 274.6C292.97 274.89 292.85 275.11 292.5 275.27C290.28 276.44 287.76 277.03 284.94 277.03C281.16 277.03 278.22 275.9 276.11 273.63C274 271.36 272.95 268.24 272.95 264.28C272.95 260.22 273.92 257.07 275.85 254.83C277.78 252.6 280.46 251.48 283.89 251.48C287.22 251.48 289.79 252.53 291.59 254.64C293.4 256.75 294.3 259.53 294.3 262.99V264.94C294.3 265.32 294.1 265.51 293.68 265.51H275.7C275.83 268.31 276.71 270.51 278.34 272.15C279.98 273.78 282.22 274.6 285.07 274.6C287.53 274.6 289.7 274.08 291.6 273.03ZM275.72 263.18H291.61V262.8C291.61 260.1 290.96 257.95 289.66 256.33C288.36 254.71 286.44 253.91 283.91 253.91C278.7 253.91 275.97 257 275.72 263.18Z" fill="#1E1818"/>
<path d="M307.14 276.93C304.1 276.93 301.48 276.47 299.29 275.55C298.94 275.39 298.8 275.2 298.86 274.98L299.33 273.6C299.46 273.22 299.68 273.11 300 273.27C302.06 274.1 304.37 274.5 306.94 274.5C309.13 274.5 310.74 274.17 311.79 273.5C312.83 272.83 313.36 271.77 313.36 270.31C313.36 269.58 313.22 268.94 312.93 268.41C312.65 267.87 312.13 267.38 311.39 266.93C310.64 266.49 309.98 266.15 309.39 265.91C308.8 265.67 307.87 265.32 306.61 264.84C306.45 264.78 306.08 264.64 305.49 264.44C304.9 264.23 304.52 264.09 304.32 264.01C304.13 263.93 303.79 263.79 303.3 263.58C302.81 263.37 302.47 263.21 302.28 263.08L301.42 262.51C301.04 262.26 300.77 262.03 300.61 261.82C300.45 261.62 300.25 261.35 300 261.04C299.75 260.73 299.56 260.4 299.45 260.09C299.34 259.77 299.24 259.4 299.16 258.97C299.08 258.54 299.04 258.09 299.04 257.62C299.04 253.53 301.78 251.48 307.27 251.48C310.15 251.48 312.59 251.94 314.59 252.86C314.91 253.02 315.02 253.22 314.92 253.48L314.49 254.76C314.4 255.08 314.17 255.19 313.83 255.09C311.86 254.29 309.77 253.9 307.55 253.9C305.52 253.9 304.04 254.19 303.13 254.78C302.21 255.37 301.75 256.31 301.75 257.61C301.75 258.18 301.87 258.71 302.11 259.18C302.35 259.65 302.6 260.03 302.87 260.32C303.14 260.6 303.62 260.92 304.32 261.27C305.02 261.62 305.58 261.87 306.01 262.03C306.44 262.19 307.18 262.44 308.22 262.79C309.46 263.23 310.47 263.64 311.26 264.02C312.06 264.4 312.86 264.88 313.68 265.47C314.51 266.06 315.12 266.75 315.52 267.54C315.91 268.34 316.11 269.25 316.11 270.3C316.14 274.72 313.14 276.93 307.14 276.93Z" fill="#1E1818"/>
</svg>
